<?xml version="1.0" encoding="UTF-8"?>
<svg id="Layer_6" data-name="Layer 6" xmlns="http://www.w3.org/2000/svg" viewBox="0 0 500 500">
  <defs>
    <style>
      .cls-1 {
        fill: #fcfafe;
      }
    </style>
  </defs>
  <path class="cls-1" d="M177.51,419.28c-12.06-1.2-10.9-17.48-13.32-26.99-1.4-7.1-3.37-14.34-5.85-20.73-7.04-19.11-20.04-32.29-41.05-27.6-14.59,3.28-28.04,15.31-40.12,29.28-5.18,5.83-11.63,15.02-19.95,12.84-3.63-1.02-6.22-4.37-6.47-8.17-.37-5,2.5-9.78,5.16-13.92,9.19-13.87,19.48-28.94,20.83-44.93,1.68-18.19-9.59-35.48-24.5-45.21-5.1-3.61-11.68-5.24-16.75-7.69-4.22-2.35-7.11-7.74-5.39-12.52,2.28-6.42,9.63-7.94,15.48-7.41,15.87.57,48.08-.06,75.26-12.45,8.95-4.02,17.68-9.65,24.78-15.92,22.42-19.7,39.83-47.62,51.27-74.52,3.24-7.04,4.98-16.74,13.08-19.32,8.88-2.24,14.6,7.6,12.28,15.11-3.23,16.12-6.35,75.94,16,99.26,8.62,10.41,20.99,19.67,32.23,26.1,4.44,2.64,9.82,5.1,14.17,6.9,4.66,1.74,9.71,7.76,7.79,13.4-4.92,14.95-32.92.57-66.24,35.22-17.45,18.52-27.75,46.95-34.55,72.3-3.37,9.84-.84,25.53-13.86,26.97h-.26ZM123.47,323.83c20.8-.39,39.23,12.36,48.77,30.56,1.73,2.5,3.97,8.62,7.35,6.52,1.61-1.22,3.27-5.03,4.3-7.49,5.7-13.65,12.57-26.93,20.44-37.39,10.63-14.15,25.59-26.03,40.74-34.09,18.1-10.07-29.63-16.03-41.14-73.36-1.31-5.5-2.07-11.45-3.06-16.86-.46-2.17-1.04-3.65-1.85-4.11-2.11-1.12-5.36,4.23-6.96,6.39-8.7,12.68-18.6,24.65-29.41,34.7-20.68,20.2-49.29,31.55-77.63,35.85-11.45,1.79-4.79,8.35-.91,14.74,2.73,4.4,5.11,9.24,6.96,14.17,2.09,5.57,3.57,11.39,4.21,17.3,1.21,8.32-2.08,18.66,7.82,16.38,6.44-1.61,13.28-3.44,20.02-3.32h.33Z"/>
  <path class="cls-1" d="M470.08,202.71c-4.72,16.36-34.4-1.42-37.46,4.68-.09,2.62,1.86,4.75,3.29,7.14,2.82,4.17,6.66,9.76,7.54,14.57,1.74,7.66-5.24,13.71-12.53,10.44-4.28-1.78-8.52-6.65-11.53-10.25-1.45-1.43-4.08-5.57-5.9-3.69-.78,1.02-.98,2.98-1.21,4.52-.86,8.12-2.13,23.8-3.25,36.06-.84,8.14-1.02,17.83-3.6,22.43-5.68,10.34-20.02,5.27-19.54-6.24.48-16.55,3.54-41.49,4.71-57.93,1.04-9.76-.56-10.64-9.16-5.57-7.43,4.24-19.93,13.2-26.87,4.82-8.57-13.09,14.02-21.14,21.75-27.97,3.98-3.1.38-4.42-2.78-5.28-9.69-2.52-31.69-7.73-44.85-10.97-8.06-1.92-20.66-4.28-19.19-14.97,3.47-12.95,15.84-8.02,29.09-5.09,8.83,2.11,19.66,4.85,26.14,6.27,1.94.27,4.33,1.11,5.9.04,1.2-1.98-1.19-4.56-2.27-6.63-2.61-4.06-6.23-9.77-6.67-14.49-.96-8.96,8.58-13.3,15.63-7.7,4.57,3.22,9.03,9.69,12.51,14.18,1.66,1.82,3.95,5.7,5.88,4.67,1-.96,1.12-3.27,1.38-4.98,1.75-14.97,3.14-43.15,5.86-60.58,1.66-10.42,15.34-13.26,19.93-3.39,2.25,5.92.81,10.98.22,20.27-1.53,18.71-4.07,43.26-4.85,56.92-.7,12.54,22.77-13.77,34.04-8.01,5.86,2.36,6.85,9.92,2.88,14.49-3.42,4.9-9.04,7.35-10.42,11.11-.48,4.81,10.96,5.78,14.58,7.67,6.06,2.02,12.55,6.74,10.84,13.24l-.05.22Z"/>
  <path class="cls-1" d="M308.65,411c-15.73,0-28.53-12.8-28.53-28.53s12.8-28.53,28.53-28.53,28.53,12.8,28.53,28.53-12.8,28.53-28.53,28.53ZM308.65,375.06c-4.08,0-7.41,3.32-7.41,7.41s3.32,7.41,7.41,7.41,7.41-3.32,7.41-7.41-3.32-7.41-7.41-7.41Z"/>
</svg>